<svg width="379" height="642" viewBox="0 0 379 642" fill="none" xmlns="http://www.w3.org/2000/svg">
<path fill-rule="evenodd" clip-rule="evenodd" d="M276.886 0.419238C257.844 2.83524 240.354 16.0972 225.769 39.1772C225.654 39.3592 222.88 36.8842 219.604 33.6772C192.69 7.34023 154.285 12.0862 138.949 43.6432C125.861 70.5762 132.695 105.758 161.438 159.42C166.91 169.634 171.386 178.475 171.386 179.065C171.386 179.656 170.05 183.278 168.417 187.115C164.574 196.146 156.058 221.833 153.878 230.969L152.178 238.091L148.63 237.29C129.84 233.052 110.762 237.463 96.4813 249.348C90.3823 254.424 82.5993 265.133 80.3113 271.598C79.0593 275.137 77.1573 276.404 75.9723 274.487C75.2403 273.302 65.0513 270.607 58.3863 269.835C51.2793 269.012 39.7923 271.387 31.8863 275.313C10.7303 285.819 -0.0666901 307.84 0.000309915 340.348C0.0563099 367.7 6.98129 392.356 20.5453 413.501L25.8183 421.721L25.9093 441.784C26.0433 471.166 29.6463 488.82 39.7993 509.848C46.3893 523.495 55.4393 536.244 64.9503 545.279L72.2263 552.19L70.1553 558.519C67.3143 567.201 67.0903 584.564 69.7213 592.111C74.4143 605.575 85.8673 616.725 103.872 625.36C127.44 636.663 154.064 641.361 194.356 641.329C229.25 641.301 255.628 637.357 282.234 628.188C324.728 613.545 349.351 587.923 349.351 558.348C349.351 551.163 346.741 540.794 343.313 534.362L340.143 528.415L344.135 523.632C357.815 507.235 369.163 482.986 374.927 457.832C378.233 443.404 379.445 417.014 377.433 403.257C374.852 385.606 367.745 367.587 358.202 354.497L353.386 347.891V339.306C353.386 322.937 349.383 299.624 343.347 280.848C338.371 265.366 332.842 253.166 310.288 207.893C298.792 184.818 289.386 165.177 289.386 164.247C289.386 163.317 292.026 158.347 295.253 153.202C322.209 110.222 332.792 83.2252 332.826 57.3482C332.85 38.7852 327.944 25.1392 317.408 14.4642C306.467 3.38024 292.285 -1.53576 276.886 0.419238ZM298.762 16.9192C313.505 24.1382 321.192 39.7902 320.089 60.3482C319.009 80.5052 309.969 104.179 291.786 134.473C281.255 152.02 283.319 152.552 272.939 129.617C259.958 100.934 245.48 71.1922 239.465 60.8482L234.231 51.8482L236.059 48.3782C239.242 42.3322 248.836 30.0002 253.653 25.7612C259.016 21.0412 268.39 15.8072 274.004 14.3962C280.982 12.6442 292.408 13.8082 298.762 16.9192ZM191.582 31.7952C197.691 33.6492 199.818 34.7862 206.059 39.5362C218.206 48.7802 232.456 72.0562 251.86 114.348C268.193 149.945 278.234 171.089 294.124 203.348C316.864 249.513 322.717 262.255 327.979 277.052C334.386 295.066 337.838 310.399 339.816 329.624L340.41 335.4L333.87 330.261C318.557 318.227 295.967 308.003 274.886 303.565C264.434 301.365 260.241 301.026 242.386 300.943C231.111 300.891 216.396 301.197 209.686 301.623L197.486 302.399L196.879 298.623C194.401 283.223 191.18 273.572 185.226 263.71C181.636 257.762 172.656 248.211 168.152 245.551C166.412 244.523 165.386 243.068 165.386 241.628C165.386 235.912 178.608 194.348 180.427 194.348C181.39 194.348 198.513 228.153 202.968 238.848C205.029 243.798 208.386 253.023 210.428 259.348C213.782 269.742 214.367 270.848 216.513 270.848C218.832 270.848 218.884 270.655 218.785 262.348C218.58 245.069 208.809 218.043 191.127 185.848C164.698 137.727 157.859 123.777 152.512 107.079C146.815 89.2882 144.854 70.7142 147.471 59.3482C150.359 46.8082 158.656 36.3092 168.743 32.4302C174.929 30.0512 184.92 29.7732 191.582 31.7952ZM144.906 249.436C158.535 251.956 169.73 260.969 176.418 274.808C180.497 283.25 183.346 293.358 183.371 299.481L183.386 303.113L175.636 303.837C158.337 305.454 145.289 310.719 136.067 319.804C118.466 337.144 116.586 366.348 131.693 387.753L133.743 390.658L127.564 390.098C115.975 389.047 109.537 383.105 100.805 365.4C91.3313 346.191 87.0783 328.305 87.0013 307.348C86.9443 291.469 88.7193 282.545 94.0153 272.093C97.4333 265.349 106.113 256.343 112.104 253.327C121.165 248.764 133.413 247.312 144.906 249.436ZM68.3863 285.638L73.8863 287.866L73.9753 305.357C74.0723 324.501 75.3073 332.744 80.5643 349.348C84.4433 361.602 93.0313 379.212 98.8523 386.848C103.125 392.453 103.387 393.144 102.828 397.348C101.092 410.394 96.6443 419.922 88.8503 427.293C59.2923 455.249 13.3233 402.788 13.4033 341.191C13.4243 325.436 15.0353 316.726 19.7733 306.748C25.0993 295.533 32.5273 288.565 43.2303 284.742C49.2533 282.59 61.9833 283.043 68.3863 285.638ZM251.85 314.372C282.083 316.552 303.751 324.413 326.245 341.362C345.376 355.778 356.585 372.942 362.585 397.008C364.449 404.487 364.788 408.62 364.782 423.848C364.777 439.931 364.485 443.095 362.04 453.559C358.034 470.7 356.018 476.408 348.87 490.848C335.494 517.869 316.813 536.783 289.256 551.206C281.446 555.293 279.886 556.504 279.886 558.479C279.886 560.698 280.203 560.828 284.886 560.53C295.637 559.846 311.141 552.995 324.048 543.225C327.664 540.489 330.736 538.385 330.877 538.549C334.705 543.036 336.966 556.198 335.426 565.038C333.617 575.427 330.005 581.75 320.396 591.348C302.437 609.286 275.744 620.322 235.386 626.492C215.988 629.459 174.354 629.733 156.069 627.016C123.784 622.219 102.196 613.537 90.0653 600.474C84.3693 594.339 81.6853 588.744 80.7913 581.139C80.2283 576.348 81.6373 563.369 82.9513 561.242C83.1923 560.853 86.8763 562.003 91.1373 563.799C101.748 568.268 110.669 570.348 119.231 570.348C124.882 570.348 126.58 570.006 127.054 568.77C127.95 566.435 125.774 564.961 116.886 561.883C94.2633 554.049 74.6313 539.843 62.2503 522.348C53.2393 509.615 45.4213 491.406 41.8553 474.848C40.0753 466.581 37.7863 439.354 38.6763 437.034C39.2013 435.666 40.0573 435.935 44.3263 438.808C52.9553 444.614 59.6433 446.655 70.3863 446.757C79.0613 446.84 80.4613 446.575 86.5093 443.71C94.3623 439.989 100.02 435.116 104.718 428.027C108.2 422.773 112.779 410.83 113.845 404.223L114.43 400.597L118.524 402.008C125.213 404.312 130.473 404.595 137.88 403.048L144.875 401.588L148.88 404.334C165.019 415.395 187.406 421.071 210.847 420.045C226.346 419.366 236.758 417.007 248.789 411.449C257.656 407.353 259.709 405.242 257.235 402.769C256.003 401.537 254.536 401.61 246.349 403.317C204.264 412.088 169.601 406.612 149.739 388.055C138.091 377.171 133.887 367.592 134.57 353.488C134.93 346.058 135.457 343.97 138.336 338.58C142.173 331.396 147.14 326.52 154.333 322.875C162.781 318.594 169.816 317.35 191.886 316.232C211.64 315.232 234.657 313.841 236.886 313.513C237.436 313.432 244.17 313.819 251.85 314.372ZM164.655 430.862C161.059 433.397 154.428 445.56 151.244 455.461C145.762 472.508 144.129 490.601 146.808 504.607C148.887 515.472 150.802 519.569 153.615 519.17C155.865 518.851 155.887 518.699 155.956 502.848C156.057 479.923 158.754 465.984 167.325 444.102C169.64 438.192 171.384 432.567 171.2 431.602C170.757 429.278 167.434 428.902 164.655 430.862ZM213.395 437.098C206.809 443.873 199.475 457.954 196.258 470.003C192.153 485.372 192.68 506.289 197.445 517.171C198.982 520.68 199.766 521.433 201.612 521.171C203.858 520.852 203.888 520.659 204.032 505.348C204.255 481.649 208.284 466.086 220.145 443.113C223.879 435.88 224.439 434.116 223.398 432.863C221.248 430.272 219.177 431.15 213.395 437.098Z" fill="black"/>
</svg>
